<svg width="800" height="400" viewBox="0 0 800 400" xmlns="http://www.w3.org/2000/svg">
  <!-- 背景渐变 -->
  <defs>
    <linearGradient id="bgGrad" x1="0%" y1="0%" x2="100%" y2="100%">
      <stop offset="0%" style="stop-color:#1a1a2e;stop-opacity:1" />
      <stop offset="100%" style="stop-color:#16213e;stop-opacity:1" />
    </linearGradient>
    <linearGradient id="accentGrad" x1="0%" y1="0%" x2="100%" y2="0%">
      <stop offset="0%" style="stop-color:#e94560;stop-opacity:1" />
      <stop offset="100%" style="stop-color:#ff6b6b;stop-opacity:1" />
    </linearGradient>
    <filter id="glow">
      <feGaussianBlur stdDeviation="3" result="coloredBlur"/>
      <feMerge>
        <feMergeNode in="coloredBlur"/>
        <feMergeNode in="SourceGraphic"/>
      </feMerge>
    </filter>
  </defs>
  
  <!-- 背景 -->
  <rect width="800" height="400" fill="url(#bgGrad)"/>
  
  <!-- 装饰性网格 -->
  <g opacity="0.1">
    <path d="M0 200 L800 200" stroke="#fff" stroke-width="1"/>
    <path d="M400 0 L400 400" stroke="#fff" stroke-width="1"/>
    <circle cx="400" cy="200" r="100" fill="none" stroke="#fff" stroke-width="1"/>
    <circle cx="400" cy="200" r="150" fill="none" stroke="#fff" stroke-width="1"/>
  </g>
  
  <!-- 左侧：人类专家 -->
  <g transform="translate(120, 200)">
    <!-- 人脑图标 -->
    <circle cx="0" cy="0" r="45" fill="#0f3460" stroke="#e94560" stroke-width="3"/>
    <text x="0" y="8" text-anchor="middle" fill="#fff" font-size="32" font-weight="bold">🧠</text>
    <!-- 专家群体 -->
    <g transform="translate(-80, -70)">
      <circle cx="0" cy="0" r="12" fill="#533483"/>
      <circle cx="25" cy="5" r="12" fill="#533483"/>
      <circle cx="50" cy="0" r="12" fill="#533483"/>
      <circle cx="12" cy="25" r="12" fill="#533483"/>
      <circle cx="38" cy="25" r="12" fill="#533483"/>
    </g>
    <text x="0" y="85" text-anchor="middle" fill="#a8dadc" font-size="14" font-weight="600">1,000+ 专家</text>
  </g>
  
  <!-- 中间：考试/基准 -->
  <g transform="translate(400, 200)">
    <!-- 试卷图标 -->
    <rect x="-50" y="-60" width="100" height="120" rx="5" fill="#fff" stroke="url(#accentGrad)" stroke-width="3"/>
    <!-- 题目线条 -->
    <line x1="-35" y1="-40" x2="35" y2="-40" stroke="#333" stroke-width="2"/>
    <line x1="-35" y1="-20" x2="35" y2="-20" stroke="#333" stroke-width="2"/>
    <line x1="-35" y1="0" x2="35" y2="0" stroke="#333" stroke-width="2"/>
    <line x1="-35" y1="20" x2="35" y2="20" stroke="#333" stroke-width="2"/>
    <line x1="-35" y1="40" x2="35" y2="40" stroke="#333" stroke-width="2"/>
    <!-- HLE 标题 -->
    <text x="0" y="90" text-anchor="middle" fill="#e94560" font-size="20" font-weight="bold" filter="url(#glow)">HLE</text>
    <text x="0" y="115" text-anchor="middle" fill="#fff" font-size="12">2,500 道难题</text>
  </g>
  
  <!-- 右侧：AI 系统 -->
  <g transform="translate(680, 200)">
    <!-- AI 芯片/大脑 -->
    <rect x="-45" y="-45" width="90" height="90" rx="10" fill="#0f3460" stroke="#00d9ff" stroke-width="3"/>
    <!-- 电路图案 -->
    <g stroke="#00d9ff" stroke-width="2" fill="none" opacity="0.6">
      <line x1="-25" y1="0" x2="25" y2="0"/>
      <line x1="0" y1="-25" x2="0" y2="25"/>
      <circle cx="0" cy="0" r="15"/>
    </g>
    <text x="0" y="8" text-anchor="middle" fill="#00d9ff" font-size="28" font-weight="bold">AI</text>
    <!-- 性能指示器 -->
    <g transform="translate(0, 70)">
      <rect x="-40" y="-8" width="80" height="16" rx="8" fill="#333" stroke="#555"/>
      <rect x="-38" y="-6" width="30" height="12" rx="6" fill="url(#accentGrad)"/>
    </g>
    <text x="0" y="105" text-anchor="middle" fill="#a8dadc" font-size="12">能力边界</text>
  </g>
  
  <!-- 连接箭头 -->
  <g stroke="#fff" stroke-width="2" fill="none" opacity="0.6">
    <path d="M180 200 C250 150, 320 150, 350 200" marker-end="url(#arrowhead)"/>
    <path d="M450 200 C520 150, 590 150, 630 200" marker-end="url(#arrowhead)"/>
  </g>
  
  <!-- 箭头定义 -->
  <defs>
    <marker id="arrowhead" markerWidth="10" markerHeight="7" refX="9" refY="3.5" orient="auto">
      <polygon points="0 0, 10 3.5, 0 7" fill="#fff" opacity="0.6"/>
    </marker>
  </defs>
  
  <!-- 标题 -->
  <text x="400" y="50" text-anchor="middle" fill="#fff" font-size="28" font-weight="bold">Humanity's Last Exam</text>
  <text x="400" y="80" text-anchor="middle" fill="#a8dadc" font-size="14">专家级学术问题基准测试</text>
  
  <!-- 底部学科标签 -->
  <g transform="translate(400, 360)">
    <g transform="translate(-180, 0)">
      <rect x="-35" y="-12" width="70" height="24" rx="12" fill="#533483" opacity="0.8"/>
      <text x="0" y="5" text-anchor="middle" fill="#fff" font-size="11">数学</text>
    </g>
    <g transform="translate(-90, 0)">
      <rect x="-35" y="-12" width="70" height="24" rx="12" fill="#533483" opacity="0.8"/>
      <text x="0" y="5" text-anchor="middle" fill="#fff" font-size="11">人文</text>
    </g>
    <g transform="translate(0, 0)">
      <rect x="-35" y="-12" width="70" height="24" rx="12" fill="#533483" opacity="0.8"/>
      <text x="0" y="5" text-anchor="middle" fill="#fff" font-size="11">自然科学</text>
    </g>
    <g transform="translate(90, 0)">
      <rect x="-35" y="-12" width="70" height="24" rx="12" fill="#533483" opacity="0.8"/>
      <text x="0" y="5" text-anchor="middle" fill="#fff" font-size="11">古代语言</text>
    </g>
    <g transform="translate(180, 0)">
      <rect x="-35" y="-12" width="70" height="24" rx="12" fill="#533483" opacity="0.8"/>
      <text x="0" y="5" text-anchor="middle" fill="#fff" font-size="11">医学</text>
    </g>
  </g>
</svg>
