<svg xmlns="http://www.w3.org/2000/svg" width="1200" height="630" viewBox="0 0 1200 630">
  <defs>
    <linearGradient id="bg" x1="0" y1="0" x2="1" y2="1">
      <stop offset="0%" stop-color="#0f172a"/>
      <stop offset="100%" stop-color="#1e3a5f"/>
    </linearGradient>
  </defs>
  <rect width="1200" height="630" fill="url(#bg)"/>
  <text x="64" y="96" fill="#93c5fd" font-size="28" font-family="Arial" font-weight="700">AI 范式雷达</text>
  <text x="64" y="168" fill="#f8fafc" font-size="52" font-family="Arial" font-weight="700">PROVE</text>
  <text x="64" y="226" fill="#cbd5e1" font-size="30" font-family="Arial">高质量合成数据 x 程序化奖励</text>
  <text x="64" y="278" fill="#94a3b8" font-size="22" font-family="Arial">13K 训练数据 · 4 个模型家族 · 3 个基准一致提升</text>
  <rect x="64" y="332" width="228" height="158" rx="16" fill="#1d4ed8"/>
  <text x="178" y="388" fill="#bfdbfe" font-size="20" font-family="Arial" text-anchor="middle">BFCL</text>
  <text x="178" y="458" fill="#ffffff" font-size="60" font-family="Arial" font-weight="700" text-anchor="middle">+10.2</text>
  <rect x="320" y="332" width="228" height="158" rx="16" fill="#0e7490"/>
  <text x="434" y="388" fill="#a5f3fc" font-size="20" font-family="Arial" text-anchor="middle">tau2-bench</text>
  <text x="434" y="458" fill="#ffffff" font-size="60" font-family="Arial" font-weight="700" text-anchor="middle">+6.8</text>
  <rect x="576" y="332" width="228" height="158" rx="16" fill="#065f46"/>
  <text x="690" y="388" fill="#6ee7b7" font-size="20" font-family="Arial" text-anchor="middle">T-Eval</text>
  <text x="690" y="458" fill="#ffffff" font-size="60" font-family="Arial" font-weight="700" text-anchor="middle">+6.5</text>
  <rect x="884" y="156" width="256" height="330" rx="20" fill="#1e293b" fill-opacity="0.84"/>
  <text x="1012" y="198" fill="#64748b" font-size="16" font-family="Arial" text-anchor="middle">训练管线</text>
  <rect x="908" y="214" width="208" height="46" rx="8" fill="#1d4ed8"/>
  <text x="1012" y="242" fill="#bfdbfe" font-size="14" font-family="Arial" text-anchor="middle">MCP 状态感知层</text>
  <line x1="1012" y1="260" x2="1012" y2="282" stroke="#475569" stroke-width="2"/>
  <polygon points="1004,282 1012,296 1020,282" fill="#475569"/>
  <rect x="908" y="298" width="208" height="46" rx="8" fill="#0e7490"/>
  <text x="1012" y="326" fill="#a5f3fc" font-size="14" font-family="Arial" text-anchor="middle">依赖图合成层</text>
  <line x1="1012" y1="344" x2="1012" y2="366" stroke="#475569" stroke-width="2"/>
  <polygon points="1004,366 1012,380 1020,366" fill="#475569"/>
  <rect x="908" y="382" width="208" height="46" rx="8" fill="#065f46"/>
  <text x="1012" y="410" fill="#6ee7b7" font-size="14" font-family="Arial" text-anchor="middle">程序化奖励 GRPO</text>
  <text x="1012" y="460" fill="#10b981" font-size="14" font-family="Arial" text-anchor="middle">无需 Judge 模型</text>
</svg>
