<?xml version="1.0" encoding="utf-8" ?>
<svg baseProfile="full" height="630" version="1.1" viewBox="0 0 1200 630" width="1200" xmlns="http://www.w3.org/2000/svg" xmlns:ev="http://www.w3.org/2001/xml-events" xmlns:xlink="http://www.w3.org/1999/xlink"><defs /><rect fill="#0f172a" height="630" width="1200" x="0" y="0" /><rect fill="none" height="120" rx="12" stroke="#3b82f6" stroke-width="2" width="1080" x="60" y="60" /><text fill="#e2e8f0" font-family="sans-serif" font-size="36" font-weight="bold" x="100" y="120">Agent 记忆架构</text><text fill="#94a3b8" font-family="sans-serif" font-size="22" x="100" y="165">从 flat retrieval 到 agentic control</text><text fill="#cbd5e1" font-family="sans-serif" font-size="18" font-weight="bold" x="100" y="240">存储粒度</text><line stroke="#3b82f6" stroke-width="3" x1="200" x2="900" y1="250" y2="250" /><circle cx="220" cy="250" fill="#3b82f6" r="12" /><text fill="#e2e8f0" font-family="sans-serif" font-size="14" x="180" y="275">token-level</text><circle cx="470" cy="250" fill="#3b82f6" r="12" /><text fill="#e2e8f0" font-family="sans-serif" font-size="14" x="430" y="275">document-level</text><circle cx="720" cy="250" fill="#3b82f6" r="12" /><text fill="#e2e8f0" font-family="sans-serif" font-size="14" x="680" y="275">session-level</text><text fill="#cbd5e1" font-family="sans-serif" font-size="18" font-weight="bold" x="100" y="330">访问模式</text><line stroke="#6366f1" stroke-width="3" x1="200" x2="900" y1="340" y2="340" /><circle cx="220" cy="340" fill="#6366f1" r="12" /><text fill="#e2e8f0" font-family="sans-serif" font-size="14" x="180" y="365">flat retrieval</text><circle cx="470" cy="340" fill="#6366f1" r="12" /><text fill="#e2e8f0" font-family="sans-serif" font-size="14" x="430" y="365">structured</text><circle cx="720" cy="340" fill="#6366f1" r="12" /><text fill="#e2e8f0" font-family="sans-serif" font-size="14" x="680" y="365">graph-based</text><text fill="#cbd5e1" font-family="sans-serif" font-size="18" font-weight="bold" x="100" y="420">更新机制</text><line stroke="#8b5cf6" stroke-width="3" x1="200" x2="900" y1="430" y2="430" /><circle cx="220" cy="430" fill="#8b5cf6" r="12" /><text fill="#e2e8f0" font-family="sans-serif" font-size="14" x="180" y="455">append-only</text><circle cx="470" cy="430" fill="#8b5cf6" r="12" /><text fill="#e2e8f0" font-family="sans-serif" font-size="14" x="430" y="455">versioned</text><circle cx="720" cy="430" fill="#8b5cf6" r="12" /><text fill="#e2e8f0" font-family="sans-serif" font-size="14" x="680" y="455">incremental</text><text fill="#cbd5e1" font-family="sans-serif" font-size="18" font-weight="bold" x="100" y="510">控制流</text><line stroke="#a78bfa" stroke-width="3" x1="200" x2="900" y1="520" y2="520" /><circle cx="220" cy="520" fill="#a78bfa" r="12" /><text fill="#e2e8f0" font-family="sans-serif" font-size="14" x="180" y="545">passive storage</text><circle cx="470" cy="520" fill="#a78bfa" r="12" /><text fill="#e2e8f0" font-family="sans-serif" font-size="14" x="430" y="545">LLM-mediated</text><circle cx="720" cy="520" fill="#a78bfa" r="12" /><text fill="#e2e8f0" font-family="sans-serif" font-size="14" x="680" y="545">agentic control</text><text fill="#64748b" font-family="sans-serif" font-size="16" x="100" y="590">10 个系统评测 | 四维分类法 | 阶段感知剖析 | 10 条系统建议</text></svg>