<svg xmlns="http://www.w3.org/2000/svg" viewBox="0 0 780 740" width="780" height="740" style="background:#fff;font-family:'PingFang SC','Microsoft YaHei',sans-serif;"><defs>
  <marker id="arr" markerWidth="10" markerHeight="7" refX="9" refY="3.5" orient="auto">
    <polygon points="0 0,10 3.5,0 7" fill="#4b5563"/>
  </marker>
</defs><rect x="240" y="21" width="120" height="34" rx="17" fill="#fee2e2" stroke="#dc2626" stroke-width="1.5"/><text x="300" y="38" text-anchor="middle" dominant-baseline="middle" fill="#7f1d1d" font-size="12">步骤失败</text><rect x="190" y="86" width="220" height="40" rx="6" fill="#dbeafe" stroke="#2563eb" stroke-width="1.5"/><text x="300" y="97" text-anchor="middle" dominant-baseline="middle" fill="#1e3a5f" font-size="12">classify_failure</text><text x="300" y="114" text-anchor="middle" dominant-baseline="middle" fill="#1e3a5f" font-size="12">→ FailureType</text><rect x="180" y="152" width="240" height="40" rx="6" fill="#dbeafe" stroke="#2563eb" stroke-width="1.5"/><text x="300" y="163" text-anchor="middle" dominant-baseline="middle" fill="#1e3a5f" font-size="12">查表 RecoveryPolicies</text><text x="300" y="180" text-anchor="middle" dominant-baseline="middle" fill="#1e3a5f" font-size="12">获取 policy</text><polygon points="300,221 393,248 300,275 207,248" fill="#fef9c3" stroke="#d97706" stroke-width="1.5"/><text x="300" y="240" text-anchor="middle" dominant-baseline="middle" fill="#713f12" font-size="12">failure_count</text><text x="300" y="256" text-anchor="middle" dominant-baseline="middle" fill="#713f12" font-size="12">> max_retries?</text><polygon points="540,221 610,248 540,275 470,248" fill="#fef9c3" stroke="#d97706" stroke-width="1.5"/><text x="540" y="248" text-anchor="middle" dominant-baseline="middle" fill="#713f12" font-size="12">default_action</text><rect x="226" y="315" width="148" height="38" rx="6" fill="#dbeafe" stroke="#2563eb" stroke-width="1.5"/><text x="300" y="334" text-anchor="middle" dominant-baseline="middle" fill="#1e3a5f" font-size="12">升级为 replan</text><rect x="610" y="171" width="120" height="38" rx="6" fill="#dbeafe" stroke="#2563eb" stroke-width="1.5"/><text x="670" y="181" text-anchor="middle" dominant-baseline="middle" fill="#1e3a5f" font-size="12">重新执行</text><text x="670" y="198" text-anchor="middle" dominant-baseline="middle" fill="#1e3a5f" font-size="12">同一 MicroStep</text><rect x="610" y="229" width="120" height="38" rx="6" fill="#dbeafe" stroke="#2563eb" stroke-width="1.5"/><text x="670" y="239" text-anchor="middle" dominant-baseline="middle" fill="#1e3a5f" font-size="12">回滚到上一</text><text x="670" y="256" text-anchor="middle" dominant-baseline="middle" fill="#1e3a5f" font-size="12">Checkpoint</text><rect x="215" y="390" width="170" height="40" rx="6" fill="#fce7f3" stroke="#db2777" stroke-width="1.5"/><text x="300" y="410" text-anchor="middle" dominant-baseline="middle" fill="#831843" font-size="12">触发重规划</text><rect x="191" y="454" width="218" height="40" rx="6" fill="#dbeafe" stroke="#2563eb" stroke-width="1.5"/><text x="300" y="465" text-anchor="middle" dominant-baseline="middle" fill="#1e3a5f" font-size="12">recall_similar</text><text x="300" y="482" text-anchor="middle" dominant-baseline="middle" fill="#1e3a5f" font-size="12">检索历史失败经验</text><rect x="202" y="518" width="196" height="40" rx="6" fill="#dbeafe" stroke="#2563eb" stroke-width="1.5"/><text x="300" y="529" text-anchor="middle" dominant-baseline="middle" fill="#1e3a5f" font-size="12">LLM 生成</text><text x="300" y="546" text-anchor="middle" dominant-baseline="middle" fill="#1e3a5f" font-size="12">替代 MicroSteps</text><polygon points="300,588 373,614 300,640 227,614" fill="#fef9c3" stroke="#d97706" stroke-width="1.5"/><text x="300" y="606" text-anchor="middle" dominant-baseline="middle" fill="#713f12" font-size="12">JSON 解析</text><text x="300" y="622" text-anchor="middle" dominant-baseline="middle" fill="#713f12" font-size="12">成功?</text><rect x="195" y="666" width="210" height="40" rx="6" fill="#dbeafe" stroke="#2563eb" stroke-width="1.5"/><text x="300" y="677" text-anchor="middle" dominant-baseline="middle" fill="#1e3a5f" font-size="12">替换当前阶段</text><text x="300" y="694" text-anchor="middle" dominant-baseline="middle" fill="#1e3a5f" font-size="12">pending 步骤</text><rect x="468" y="597" width="145" height="34" rx="17" fill="#fee2e2" stroke="#dc2626" stroke-width="1.5"/><text x="540" y="614" text-anchor="middle" dominant-baseline="middle" fill="#7f1d1d" font-size="12">escalate / 人工介入</text><rect x="240" y="711" width="120" height="30" rx="15" fill="#dcfce7" stroke="#16a34a" stroke-width="1.5"/><text x="300" y="726" text-anchor="middle" dominant-baseline="middle" fill="#14532d" font-size="12">继续执行</text><line x1="300" y1="55" x2="300" y2="86" stroke="#4b5563" stroke-width="1.5" marker-end="url(#arr)"/><line x1="300" y1="126" x2="300" y2="152" stroke="#4b5563" stroke-width="1.5" marker-end="url(#arr)"/><line x1="300" y1="192" x2="300" y2="221" stroke="#4b5563" stroke-width="1.5" marker-end="url(#arr)"/><line x1="393" y1="248" x2="470" y2="248" stroke="#4b5563" stroke-width="1.5" marker-end="url(#arr)"/><text x="396" y="242" font-size="11" fill="#6b7280">否</text><line x1="300" y1="275" x2="300" y2="315" stroke="#4b5563" stroke-width="1.5" marker-end="url(#arr)"/><text x="304" y="298" font-size="11" fill="#6b7280">是</text><line x1="300" y1="353" x2="300" y2="390" stroke="#4b5563" stroke-width="1.5" marker-end="url(#arr)"/><line x1="540" y1="221" x2="600" y2="205" stroke="#4b5563" stroke-width="1.5" marker-end="url(#arr)"/><text x="545" y="210" font-size="11" fill="#6b7280">retry</text><line x1="610" y1="221" x2="630" y2="200" stroke="#4b5563" stroke-width="1.5" marker-end="url(#arr)"/><text x="565" y="205" font-size="11" fill="#6b7280">retry</text><line x1="610" y1="248" x2="630" y2="248" stroke="#4b5563" stroke-width="1.5" marker-end="url(#arr)"/><text x="546" y="242" font-size="11" fill="#6b7280">rollback</text><path d="M 540 275 L 540 410 L 385 410" stroke="#4b5563" stroke-width="1.5" fill="none" marker-end="url(#arr)"/><text x="545" y="400" font-size="11" fill="#6b7280">replan</text><line x1="300" y1="430" x2="300" y2="454" stroke="#4b5563" stroke-width="1.5" marker-end="url(#arr)"/><line x1="300" y1="494" x2="300" y2="518" stroke="#4b5563" stroke-width="1.5" marker-end="url(#arr)"/><line x1="300" y1="558" x2="300" y2="588" stroke="#4b5563" stroke-width="1.5" marker-end="url(#arr)"/><line x1="300" y1="640" x2="300" y2="666" stroke="#4b5563" stroke-width="1.5" marker-end="url(#arr)"/><text x="304" y="656" font-size="11" fill="#6b7280">是</text><line x1="373" y1="614" x2="467" y2="614" stroke="#4b5563" stroke-width="1.5" marker-end="url(#arr)"/><text x="380" y="608" font-size="11" fill="#6b7280">否</text><line x1="300" y1="706" x2="300" y2="711" stroke="#4b5563" stroke-width="1.5" marker-end="url(#arr)"/></svg>