<svg xmlns="http://www.w3.org/2000/svg" width="1200" height="630" viewBox="0 0 1200 630">
  <rect width="1200" height="630" fill="#0f172a"/>
  <text x="600" y="50" fill="#e2e8f0" font-size="26" font-family="Arial" font-weight="700" text-anchor="middle">PROVE 框架三大组件</text>
  <rect x="40" y="84" width="314" height="458" rx="16" fill="#1e293b" stroke="#3b82f6" stroke-width="1.5"/>
  <rect x="40" y="84" width="314" height="50" rx="16" fill="#1d4ed8"/>
  <text x="197" y="117" fill="#fff" font-size="17" font-family="Arial" font-weight="700" text-anchor="middle">1. 状态感知工具层</text>
  <text x="197" y="162" fill="#93c5fd" font-size="14" font-family="Arial" text-anchor="middle">20 MCP 服务器 / 343 个工具</text>
  <rect x="64" y="178" width="266" height="36" rx="8" fill="#172554"/>
  <text x="197" y="201" fill="#93c5fd" font-size="13" font-family="Arial" text-anchor="middle">Session 隔离状态管理</text>
  <rect x="64" y="224" width="266" height="36" rx="8" fill="#172554"/>
  <text x="197" y="247" fill="#93c5fd" font-size="13" font-family="Arial" text-anchor="middle">真实工具可执行状态</text>
  <rect x="64" y="270" width="266" height="36" rx="8" fill="#172554"/>
  <text x="197" y="293" fill="#93c5fd" font-size="13" font-family="Arial" text-anchor="middle">避免跨样本状态污染</text>
  <text x="197" y="382" fill="#475569" font-size="13" font-family="Arial" text-anchor="middle">训练数据与部署环境</text>
  <text x="197" y="402" fill="#475569" font-size="13" font-family="Arial" text-anchor="middle">共享同一套可执行约束</text>
  <line x1="354" y1="312" x2="426" y2="312" stroke="#3b82f6" stroke-width="2.5"/>
  <polygon points="426,305 442,312 426,319" fill="#3b82f6"/>
  <rect x="442" y="84" width="314" height="458" rx="16" fill="#1e293b" stroke="#0ea5e9" stroke-width="1.5"/>
  <rect x="442" y="84" width="314" height="50" rx="16" fill="#0e7490"/>
  <text x="599" y="117" fill="#fff" font-size="17" font-family="Arial" font-weight="700" text-anchor="middle">2. 依赖图合成层</text>
  <circle cx="520" cy="210" r="26" fill="#164e63"/>
  <text x="520" y="215" fill="#a5f3fc" font-size="12" font-family="Arial" text-anchor="middle">Tool A</text>
  <circle cx="599" cy="258" r="26" fill="#164e63"/>
  <text x="599" y="263" fill="#a5f3fc" font-size="12" font-family="Arial" text-anchor="middle">Tool B</text>
  <circle cx="678" cy="210" r="26" fill="#164e63"/>
  <text x="678" y="215" fill="#a5f3fc" font-size="12" font-family="Arial" text-anchor="middle">Tool C</text>
  <line x1="544" y1="222" x2="575" y2="246" stroke="#0ea5e9" stroke-width="1.5"/>
  <line x1="623" y1="246" x2="654" y2="222" stroke="#0ea5e9" stroke-width="1.5"/>
  <rect x="466" y="302" width="266" height="36" rx="8" fill="#0c4a6e"/>
  <text x="599" y="325" fill="#7dd3fc" font-size="13" font-family="Arial" text-anchor="middle">从叶子节点逐步生成查询</text>
  <rect x="466" y="348" width="266" height="36" rx="8" fill="#0c4a6e"/>
  <text x="599" y="371" fill="#7dd3fc" font-size="13" font-family="Arial" text-anchor="middle">参数绑定到真实实体</text>
  <rect x="466" y="394" width="266" height="36" rx="8" fill="#0c4a6e"/>
  <text x="599" y="417" fill="#7dd3fc" font-size="13" font-family="Arial" text-anchor="middle">生成约 13K 高质量样本</text>
  <line x1="756" y1="312" x2="828" y2="312" stroke="#0ea5e9" stroke-width="2.5"/>
  <polygon points="828,305 844,312 828,319" fill="#0ea5e9"/>
  <rect x="844" y="84" width="316" height="458" rx="16" fill="#1e293b" stroke="#10b981" stroke-width="1.5"/>
  <rect x="844" y="84" width="316" height="50" rx="16" fill="#065f46"/>
  <text x="1002" y="117" fill="#fff" font-size="17" font-family="Arial" font-weight="700" text-anchor="middle">3. 程序化奖励层</text>
  <text x="1002" y="160" fill="#6ee7b7" font-size="13" font-family="Arial" text-anchor="middle">5 个子组件 · 无需 Judge 模型</text>
  <rect x="872" y="178" width="260" height="32" rx="6" fill="#064e3b"/>
  <text x="1002" y="199" fill="#a7f3d0" font-size="13" font-family="Arial" text-anchor="middle">分级有效性评分  x0.30</text>
  <rect x="872" y="220" width="260" height="32" rx="6" fill="#064e3b"/>
  <text x="1002" y="241" fill="#a7f3d0" font-size="13" font-family="Arial" text-anchor="middle">依赖感知覆盖率  x0.25</text>
  <rect x="872" y="262" width="260" height="32" rx="6" fill="#064e3b"/>
  <text x="1002" y="283" fill="#a7f3d0" font-size="13" font-family="Arial" text-anchor="middle">自适应效率惩罚  x0.15</text>
  <rect x="872" y="304" width="260" height="32" rx="6" fill="#064e3b"/>
  <text x="1002" y="325" fill="#a7f3d0" font-size="13" font-family="Arial" text-anchor="middle">工具名信号  x0.15</text>
  <rect x="872" y="346" width="260" height="32" rx="6" fill="#064e3b"/>
  <text x="1002" y="367" fill="#a7f3d0" font-size="13" font-family="Arial" text-anchor="middle">参数值匹配  x0.15</text>
  <text x="1002" y="432" fill="#475569" font-size="13" font-family="Arial" text-anchor="middle">每步即时奖励 = 奖励前置化</text>
</svg>
