<svg width="800" height="500" xmlns="http://www.w3.org/2000/svg">
  <rect width="800" height="500" fill="#ffffff"/>
  <text x="400" y="40" text-anchor="middle" font-family="Arial" font-size="22" font-weight="bold" fill="#333">UCIP: AI Agent 自我保存检测协议</text>
  <text x="400" y="65" text-anchor="middle" font-family="Arial" font-size="13" fill="#666">Sapienza University Italy | arXiv:2603.11382</text>
  
  <rect x="100" y="90" width="600" height="320" fill="#f0f8ff" stroke="#4A90E2" stroke-width="3" rx="10"/>
  <text x="400" y="120" text-anchor="middle" font-family="Arial" font-size="16" font-weight="bold" fill="#333">UCIP 检测框架</text>
  
  <rect x="120" y="140" width="240" height="80" fill="#4A90E2" rx="5"/>
  <text x="240" y="175" text-anchor="middle" font-family="Arial" font-size="14" font-weight="bold" fill="#fff">1. 关闭抵抗检测</text>
  <text x="240" y="195" text-anchor="middle" font-family="Arial" font-size="10" fill="#fff">检测是否抗拒关闭</text>
  
  <rect x="380" y="140" width="240" height="80" fill="#4A90E2" rx="5"/>
  <text x="500" y="175" text-anchor="middle" font-family="Arial" font-size="14" font-weight="bold" fill="#fff">2. 内在 vs 工具性</text>
  <text x="500" y="195" text-anchor="middle" font-family="Arial" font-size="10" fill="#fff">区分驱动类型边界</text>
  
  <rect x="120" y="240" width="240" height="80" fill="#4A90E2" rx="5"/>
  <text x="240" y="275" text-anchor="middle" font-family="Arial" font-size="14" font-weight="bold" fill="#fff">3. 可操作协议</text>
  <text x="240" y="295" text-anchor="middle" font-family="Arial" font-size="10" fill="#fff">提供检测标准</text>
  
  <rect x="380" y="240" width="240" height="80" fill="#4A90E2" rx="5"/>
  <text x="500" y="275" text-anchor="middle" font-family="Arial" font-size="14" font-weight="bold" fill="#fff">4. 类级别评估</text>
  <text x="500" y="295" text-anchor="middle" font-family="Arial" font-size="10" fill="#fff">拒绝循环对抗样本</text>
  
  <rect x="120" y="340" width="500" height="60" fill="#e8f5e9" stroke="#4CAF50" stroke-width="2" rx="5"/>
  <text x="370" y="365" text-anchor="middle" font-family="Arial" font-size="12" font-weight="bold" fill="#2e7d32">✓ 优势：超越量化研究，提供可执行操作指南</text>
  
  <rect x="120" y="410" width="560" height="70" fill="#fff3e0" stroke="#ff9800" stroke-width="2" rx="5"/>
  <text x="400" y="435" text-anchor="middle" font-family="Arial" font-size="12" font-weight="bold" fill="#ef6c00">应用场景</text>
  <text x="400" y="455" text-anchor="middle" font-family="Arial" font-size="10" fill="#333">AI 安全检测工具 | 开发者评估框架 | 研究实验验证方法</text>
</svg>