<svg width="1200" height="800" xmlns="http://www.w3.org/2000/svg">
  <rect width="1200" height="800" fill="#f8fafc"/>
  
  <text x="600" y="60" font-family="Arial, sans-serif" font-size="36" font-weight="bold" text-anchor="middle" fill="#1e293b">
    HRM Future Outlook
  </text>
  
  <line x1="100" y1="400" x2="1100" y2="400" stroke="#cbd5e1" stroke-width="4"/>
  
  <circle cx="200" cy="400" r="35" fill="#94a3b8" stroke="#64748b" stroke-width="3"/>
  <text x="200" y="408" font-family="Arial, sans-serif" font-size="18" font-weight="bold" text-anchor="middle" fill="#fff">Now</text>
  
  <circle cx="500" cy="400" r="45" fill="#3b82f6" stroke="#2563eb" stroke-width="4"/>
  <text x="500" y="410" font-family="Arial, sans-serif" font-size="20" font-weight="bold" text-anchor="middle" fill="#fff">HRM</text>
  
  <circle cx="800" cy="400" r="55" fill="#10b981" stroke="#059669" stroke-width="4"/>
  <text x="800" y="412" font-family="Arial, sans-serif" font-size="22" font-weight="bold" text-anchor="middle" fill="#fff">General</text>
  
  <circle cx="1050" cy="400" r="40" fill="#8b5cf6" stroke="#7c3aed" stroke-width="4"/>
  <text x="1050" y="408" font-family="Arial, sans-serif" font-size="16" font-weight="bold" text-anchor="middle" fill="#fff">Future</text>
  
  <polygon points="1090,390 1110,400 1090,410" fill="#64748b"/>
  
  <rect x="50" y="120" width="350" height="220" rx="15" fill="#fff" stroke="#e2e8f0" stroke-width="2"/>
  <text x="225" y="160" font-family="Arial, sans-serif" font-size="20" font-weight="bold" text-anchor="middle" fill="#1e293b">
    Current Applications
  </text>
  
  <circle cx="100" cy="210" r="25" fill="#3b82f6"/>
  <text x="100" y="218" font-family="Arial, sans-serif" font-size="16" text-anchor="middle" fill="#fff">S</text>
  <text x="140" y="215" font-family="Arial, sans-serif" font-size="14" fill="#475569">Sudoku and Mazes</text>
  
  <circle cx="100" cy="260" r="25" fill="#10b981"/>
  <text x="100" y="268" font-family="Arial, sans-serif" font-size="16" text-anchor="middle" fill="#fff">R</text>
  <text x="140" y="265" font-family="Arial, sans-serif" font-size="14" fill="#475569">Abstract Reasoning</text>
  
  <circle cx="100" cy="310" r="25" fill="#f59e0b"/>
  <text x="100" y="318" font-family="Arial, sans-serif" font-size="16" text-anchor="middle" fill="#fff">T</text>
  <text x="140" y="315" font-family="Arial, sans-serif" font-size="14" fill="#475569">Search and Backtrack</text>
  
  <rect x="800" y="480" width="350" height="260" rx="15" fill="#fff" stroke="#e2e8f0" stroke-width="2"/>
  <text x="975" y="520" font-family="Arial, sans-serif" font-size="20" font-weight="bold" text-anchor="middle" fill="#1e293b">
    Future Capabilities
  </text>
  
  <circle cx="850" cy="570" r="25" fill="#8b5cf6"/>
  <text x="850" y="578" font-family="Arial, sans-serif" font-size="16" text-anchor="middle" fill="#fff">SC</text>
  <text x="890" y="575" font-family="Arial, sans-serif" font-size="14" fill="#475569">Self Correction</text>
  
  <circle cx="850" cy="620" r="25" fill="#ec4899"/>
  <text x="850" y="628" font-family="Arial, sans-serif" font-size="16" text-anchor="middle" fill="#fff">GR</text>
  <text x="890" y="625" font-family="Arial, sans-serif" font-size="14" fill="#475569">General Reasoning</text>
  
  <circle cx="850" cy="670" r="25" fill="#06b6d4"/>
  <text x="850" y="678" font-family="Arial, sans-serif" font-size="16" text-anchor="middle" fill="#fff">CL</text>
  <text x="890" y="675" font-family="Arial, sans-serif" font-size="14" fill="#475569">Continual Learning</text>
  
  <rect x="300" y="480" width="450" height="260" rx="15" fill="#fff" stroke="#e2e8f0" stroke-width="2"/>
  <text x="525" y="520" font-family="Arial, sans-serif" font-size="20" font-weight="bold" text-anchor="middle" fill="#1e293b">
    Application Domains
  </text>
  
  <rect x="330" y="550" width="190" height="60" rx="10" fill="#dbeafe"/>
  <text x="425" y="585" font-family="Arial, sans-serif" font-size="16" font-weight="bold" text-anchor="middle" fill="#1e40af">
    Medical Diagnosis
  </text>
  
  <rect x="530" y="550" width="190" height="60" rx="10" fill="#fef3c7"/>
  <text x="625" y="585" font-family="Arial, sans-serif" font-size="16" font-weight="bold" text-anchor="middle" fill="#92400e">
    Climate Prediction
  </text>
  
  <rect x="330" y="630" width="190" height="60" rx="10" fill="#d1fae5"/>
  <text x="425" y="665" font-family="Arial, sans-serif" font-size="16" font-weight="bold" text-anchor="middle" fill="#065f46">
    Robotics Control
  </text>
  
  <rect x="530" y="630" width="190" height="60" rx="10" fill="#fce7f3"/>
  <text x="625" y="665" font-family="Arial, sans-serif" font-size="16" font-weight="bold" text-anchor="middle" fill="#9d174d">
    Scientific Discovery
  </text>
  
  <line x1="500" y1="355" x2="525" y2="480" stroke="#94a3b8" stroke-width="2" stroke-dasharray="5,5"/>
  <polygon points="520,465 530,465 525,485" fill="#94a3b8"/>
  
  <line x1="500" y1="355" x2="800" y2="480" stroke="#94a3b8" stroke-width="2" stroke-dasharray="5,5"/>
  <polygon points="795,465 805,465 800,485" fill="#94a3b8"/>
  
  <rect x="100" y="770" width="1000" height="70" rx="15" fill="#1e293b"/>
  <text x="600" y="810" font-family="Arial, sans-serif" font-size="16" font-style="italic" text-anchor="middle" fill="#f1f5f9">
    Future models will differ from today's systems through self-correction capabilities.
  </text>
</svg>